<svg width="135" height="48" viewBox="0 0 135 48" fill="none" xmlns="http://www.w3.org/2000/svg">
<path fill-rule="evenodd" clip-rule="evenodd" d="M0 24.0559C13.9836 24.0559 22 16.0395 22 2.05591C22 16.0395 30.0164 24.0559 44 24.0559C30.0164 24.0559 22 32.0723 22 46.0559C22 32.0723 13.9836 24.0559 0 24.0559Z" fill="#070707"/>
<path d="M52.6899 33.9651L60.3699 12.9651H64.6899L72.3699 33.9651H68.2899L66.6099 29.1051H58.4199L56.7099 33.9651H52.6899ZM59.4699 26.1051H65.5599L62.4999 17.3751L59.4699 26.1051Z" fill="#070707"/>
<path d="M80.072 34.3251C78.552 34.3251 77.212 33.9951 76.052 33.3351C74.892 32.6751 73.972 31.7551 73.292 30.5751C72.632 29.3951 72.302 28.0451 72.302 26.5251C72.302 25.0051 72.632 23.6551 73.292 22.4751C73.972 21.2951 74.892 20.3751 76.052 19.7151C77.212 19.0551 78.552 18.7251 80.072 18.7251C81.972 18.7251 83.572 19.2251 84.872 20.2251C86.172 21.2051 87.002 22.5651 87.362 24.3051H83.312C83.112 23.5851 82.712 23.0251 82.112 22.6251C81.532 22.2051 80.842 21.9951 80.042 21.9951C78.982 21.9951 78.082 22.3951 77.342 23.1951C76.602 23.9951 76.232 25.1051 76.232 26.5251C76.232 27.9451 76.602 29.0551 77.342 29.8551C78.082 30.6551 78.982 31.0551 80.042 31.0551C80.842 31.0551 81.532 30.8551 82.112 30.4551C82.712 30.0551 83.112 29.4851 83.312 28.7451H87.362C87.002 30.4251 86.172 31.7751 84.872 32.7951C83.572 33.8151 81.972 34.3251 80.072 34.3251Z" fill="#070707"/>
<path d="M89.2703 33.9651V19.0851H92.6603L92.9903 21.0951C93.4703 20.3751 94.1003 19.8051 94.8803 19.3851C95.6803 18.9451 96.6003 18.7251 97.6403 18.7251C99.9403 18.7251 101.57 19.6151 102.53 21.3951C103.07 20.5751 103.79 19.9251 104.69 19.4451C105.61 18.9651 106.61 18.7251 107.69 18.7251C109.63 18.7251 111.12 19.3051 112.16 20.4651C113.2 21.6251 113.72 23.3251 113.72 25.5651V33.9651H109.88V25.9251C109.88 24.6451 109.63 23.6651 109.13 22.9851C108.65 22.3051 107.9 21.9651 106.88 21.9651C105.84 21.9651 105 22.3451 104.36 23.1051C103.74 23.8651 103.43 24.9251 103.43 26.2851V33.9651H99.5903V25.9251C99.5903 24.6451 99.3403 23.6651 98.8403 22.9851C98.3403 22.3051 97.5703 21.9651 96.5303 21.9651C95.5103 21.9651 94.6803 22.3451 94.0403 23.1051C93.4203 23.8651 93.1103 24.9251 93.1103 26.2851V33.9651H89.2703Z" fill="#070707"/>
<path d="M123.096 34.3251C121.596 34.3251 120.266 34.0051 119.106 33.3651C117.946 32.7251 117.036 31.8251 116.376 30.6651C115.716 29.5051 115.386 28.1651 115.386 26.6451C115.386 25.1051 115.706 23.7351 116.346 22.5351C117.006 21.3351 117.906 20.4051 119.046 19.7451C120.206 19.0651 121.566 18.7251 123.126 18.7251C124.586 18.7251 125.876 19.0451 126.996 19.6851C128.116 20.3251 128.986 21.2051 129.606 22.3251C130.246 23.4251 130.566 24.6551 130.566 26.0151C130.566 26.2351 130.556 26.4651 130.536 26.7051C130.536 26.9451 130.526 27.1951 130.506 27.4551H119.196C119.276 28.6151 119.676 29.5251 120.396 30.1851C121.136 30.8451 122.026 31.1751 123.066 31.1751C123.846 31.1751 124.496 31.0051 125.016 30.6651C125.556 30.3051 125.956 29.8451 126.216 29.2851H130.116C129.836 30.2251 129.366 31.0851 128.706 31.8651C128.066 32.6251 127.266 33.2251 126.306 33.6651C125.366 34.1051 124.296 34.3251 123.096 34.3251ZM123.126 21.8451C122.186 21.8451 121.356 22.1151 120.636 22.6551C119.916 23.1751 119.456 23.9751 119.256 25.0551H126.666C126.606 24.0751 126.246 23.2951 125.586 22.7151C124.926 22.1351 124.106 21.8451 123.126 21.8451Z" fill="#070707"/>
</svg>
